<svg width="58" height="58" viewBox="0 0 58 58" fill="none" xmlns="http://www.w3.org/2000/svg">
<g clip-path="url(#clip0_484_1420)">
<path d="M35.9102 6.63818H1.69922C0.76125 6.63818 0 5.87807 0 4.93896C0 4.001 0.76125 3.23975 1.69922 3.23975H35.9102C36.8481 3.23975 37.6094 4.001 37.6094 4.93896C37.6094 5.87807 36.8481 6.63818 35.9102 6.63818Z" fill="#2B52E2"/>
<path d="M1.69922 10.0366H15.4062C16.3442 10.0366 17.1055 10.7979 17.1055 11.7358C17.1055 12.6749 16.3442 13.4351 15.4062 13.4351H1.69922C0.76125 13.4351 0 12.6749 0 11.7358C0 10.7979 0.76125 10.0366 1.69922 10.0366Z" fill="#2B52E2"/>
<path d="M35.9102 13.4355H22.2031C21.2647 13.4355 20.5039 12.6748 20.5039 11.7363C20.5039 10.7979 21.2647 10.0371 22.2031 10.0371H35.9102C36.8486 10.0371 37.6094 10.7979 37.6094 11.7363C37.6094 12.6748 36.8486 13.4355 35.9102 13.4355Z" fill="#2B52E2"/>
<path d="M11.3246 36.7258L35.5919 30.5594C36.1456 30.4191 36.7306 30.5811 37.1344 30.9837L37.1355 30.9848C37.5392 31.3884 37.7 31.9745 37.5597 32.5283L31.3922 56.7934C31.0928 58.1552 29.1227 58.4519 28.437 57.2316L24.8686 51.3242L20.6493 54.6174C18.6256 56.1966 15.7307 56.0185 13.9152 54.2029C12.0998 52.3875 11.9216 49.4926 13.5007 47.4688L16.7938 43.2495L10.8864 39.6812C9.66819 38.9996 9.96102 37.0247 11.3246 36.7258Z" fill="#2B52E2"/>
<path d="M42.707 41.0078H56.3008C57.2387 41.0078 58 41.7691 58 42.707V56.3008C58 57.2399 57.2387 58 56.3008 58H42.707C41.7691 58 41.0078 57.2399 41.0078 56.3008V42.707C41.0078 41.7691 41.7691 41.0078 42.707 41.0078Z" fill="#2B52E2"/>
<path d="M42.707 20.5039H56.3008C57.2387 20.5039 58 21.2652 58 22.2031V35.7969C58 36.736 57.2387 37.4961 56.3008 37.4961H42.707C41.7691 37.4961 41.0078 36.736 41.0078 35.7969V22.2031C41.0078 21.2652 41.7691 20.5039 42.707 20.5039ZM49.5039 27.3008C48.5659 27.3008 47.8047 28.062 47.8047 29C47.8047 29.9391 48.5659 30.6992 49.5039 30.6992C50.4419 30.6992 51.2031 29.9391 51.2031 29C51.2031 28.062 50.4419 27.3008 49.5039 27.3008Z" fill="#2B52E2"/>
<path d="M42.707 0H56.3008C57.2387 0 58 0.76125 58 1.69922V15.293C58 16.2321 57.2387 16.9922 56.3008 16.9922H42.707C41.7691 16.9922 41.0078 16.2321 41.0078 15.293V1.69922C41.0078 0.76125 41.7691 0 42.707 0ZM49.5039 6.79688C48.5659 6.79688 47.8047 7.55813 47.8047 8.49609C47.8047 9.43519 48.5659 10.1953 49.5039 10.1953C50.4419 10.1953 51.2031 9.43519 51.2031 8.49609C51.2031 7.55813 50.4419 6.79688 49.5039 6.79688Z" fill="#2B52E2"/>
<path d="M1.69922 23.7441H35.9102C36.8481 23.7441 37.6094 24.5054 37.6094 25.4434C37.6094 26.3825 36.8481 27.1426 35.9102 27.1426H1.69922C0.76125 27.1426 0 26.3825 0 25.4434C0 24.5055 0.76125 23.7441 1.69922 23.7441Z" fill="#2B52E2"/>
</g>
<defs>
<clipPath id="clip0_484_1420">
<rect width="58" height="58" fill="white" transform="matrix(-1 0 0 1 58 0)"/>
</clipPath>
</defs>
</svg>
