<svg width="44" height="56" viewBox="0 0 44 56" fill="none" xmlns="http://www.w3.org/2000/svg">
<g filter="url(#filter0_d_7296_8133)">
<path d="M34 48H10C6.686 48 4 45.314 4 42V6C4 2.686 6.686 0 10 0H29.414C29.679 0 29.934 0.105 30.121 0.293L39.707 9.879C39.895 10.067 40 10.321 40 10.586V42C40 45.314 37.314 48 34 48Z" fill="url(#paint0_linear_7296_8133)"/>
<path d="M38.96 11.3059H29.345C28.911 11.3059 28.559 10.9539 28.559 10.5199V0.904868C28.559 0.100868 29.532 -0.302132 30.1 0.266868L39.598 9.76487C40.167 10.3339 39.764 11.3059 38.96 11.3059Z" fill="white"/>
<path d="M29 21.9998H24V16.9998C24 15.8958 23.104 14.9998 22 14.9998C20.896 14.9998 20 15.8958 20 16.9998V21.9998H15C13.896 21.9998 13 22.8958 13 23.9998C13 25.1038 13.896 25.9998 15 25.9998H20V30.9998C20 32.1038 20.896 32.9998 22 32.9998C23.104 32.9998 24 32.1038 24 30.9998V25.9998H29C30.104 25.9998 31 25.1038 31 23.9998C31 22.8958 30.104 21.9998 29 21.9998Z" fill="white"/>
</g>
<defs>
<filter id="filter0_d_7296_8133" x="0" y="0" width="44" height="56" filterUnits="userSpaceOnUse" color-interpolation-filters="sRGB">
<feFlood flood-opacity="0" result="BackgroundImageFix"/>
<feColorMatrix in="SourceAlpha" type="matrix" values="0 0 0 0 0 0 0 0 0 0 0 0 0 0 0 0 0 0 127 0" result="hardAlpha"/>
<feOffset dy="4"/>
<feGaussianBlur stdDeviation="2"/>
<feComposite in2="hardAlpha" operator="out"/>
<feColorMatrix type="matrix" values="0 0 0 0 0.107483 0 0 0 0 0.218661 0 0 0 0 0.629167 0 0 0 1 0"/>
<feBlend mode="normal" in2="BackgroundImageFix" result="effect1_dropShadow_7296_8133"/>
<feBlend mode="normal" in="SourceGraphic" in2="effect1_dropShadow_7296_8133" result="shape"/>
</filter>
<linearGradient id="paint0_linear_7296_8133" x1="34" y1="3.20375e-07" x2="9" y2="48" gradientUnits="userSpaceOnUse">
<stop stop-color="#00D1FF"/>
<stop offset="1" stop-color="#50CD89"/>
</linearGradient>
</defs>
</svg>
